<?xml version="1.0" encoding="utf-8"?>
<!-- Generator: Adobe Illustrator 27.8.0, SVG Export Plug-In . SVG Version: 6.00 Build 0)  -->
<svg version="1.1"
	 id="svg452362" xmlns:cc="http://creativecommons.org/ns#" xmlns:dc="http://purl.org/dc/elements/1.1/" xmlns:svg="http://www.w3.org/2000/svg" xmlns:rdf="http://www.w3.org/1999/02/22-rdf-syntax-ns#"
	 xmlns="http://www.w3.org/2000/svg" xmlns:xlink="http://www.w3.org/1999/xlink" x="0px" y="0px" viewBox="0 0 253.8 16.6"
	 style="enable-background:new 0 0 253.8 16.6;" xml:space="preserve">
<style type="text/css">
	.st0{fill:#2F4450;}
	.st1{fill:#5BAAEC;}
</style>
<g id="logo-group">
	<g id="logo-center" transform="translate(-1.1368683772161603e-13 0)">
		<g id="title" transform="translate(0 0)">
			<path id="path452421" class="st0" d="M15.8,16.2v-16L7.9,11L3.5,5L0,0.3v16h3.5v-6l4.4,6l4.4-6v6L15.8,16.2z"/>
			<path id="path452423" class="st0" d="M33.8,16.3h4L31.1,4.1l-2.1-3.8l-2,3.6l-6.9,12.4h4.3l4.7-8.5L33.8,16.3z"/>
			<path id="path452425" class="st0" d="M53.5,9.9V0.3H50v9.9c0,1.5-1.5,2.7-3.1,2.7c-1.7,0-3.1-1.4-3.1-3.1h-3.5
				c0,3.7,3,6.6,6.6,6.6C50.6,16.5,53.5,13.5,53.5,9.9z"/>
			<path id="path452427" class="st0" d="M69.9,16.2v-3.1h-7.4V9.8h6.2V6.8h-6.2V3.4h7.4V0.3h-11v16H69.9z"/>
			<path id="path452429" class="st0" d="M86.7,11.9v-0.5c0-0.5-0.1-1.1-0.4-1.7c-0.2-0.6-0.6-1.1-1.1-1.5c-0.4-0.4-0.9-0.6-1.3-0.9
				C83,7,82.2,6.8,81.4,6.6c-0.7-0.2-1.4-0.4-2-0.6c-0.1,0-0.2-0.1-0.3-0.1c0,0-0.1,0-0.1,0l-0.2-0.1c0,0,0,0,0,0l-0.1-0.1
				c-0.1,0-0.2-0.1-0.2-0.2c-0.1-0.1-0.2-0.2-0.2-0.2c-0.1-0.1-0.1-0.2-0.1-0.3c0-0.1,0-0.4,0-0.5c0-0.2,0.1-0.2,0.2-0.3
				c0.1-0.1,0.2-0.2,0.3-0.3c0.3-0.2,0.8-0.3,1.4-0.3c0.1,0,0.3,0,0.4,0h0.2c0.1,0,0.1,0,0.2,0c0.2,0,0.5,0.1,0.7,0.2
				c0.4,0.2,0.8,0.4,1,0.7c0.2,0.3,0.4,0.6,0.4,0.9h3.6c0-1.2-0.4-2.3-1.1-3.2c-0.7-0.9-1.6-1.5-2.6-1.8c-0.5-0.2-1-0.3-1.5-0.3
				c-0.1,0-0.3,0-0.4,0h-0.4c-0.2,0-0.5,0-0.7,0c-0.5,0.1-1.1,0.2-1.6,0.3c-0.4,0.1-0.8,0.3-1.2,0.6c-0.5,0.3-0.9,0.7-1.3,1.3
				c-0.4,0.5-0.6,1.1-0.7,1.7c0,0.3,0,0.6,0,0.9c0,0.3,0.1,0.6,0.1,0.9c0.1,0.6,0.5,1.2,0.9,1.7c0.4,0.5,0.9,0.8,1.3,1
				c0.5,0.2,0.9,0.4,1.3,0.6c0.8,0.3,1.6,0.5,2.3,0.6s1.3,0.4,1.8,0.7c0.2,0.1,0.4,0.3,0.5,0.4c0.1,0.1,0.2,0.2,0.2,0.4
				c0,0.1,0.1,0.3,0.1,0.5c0,0.1,0,0.1,0,0.2c0,0,0,0.1,0,0.2c0,0.1-0.1,0.2-0.2,0.3c-0.1,0.1-0.3,0.2-0.5,0.3
				c-0.4,0.2-0.9,0.3-1.5,0.4c-0.1,0-0.3,0-0.4,0s-0.3,0-0.4,0c-0.2,0-0.5-0.1-0.7-0.2c-0.4-0.2-0.8-0.4-1.1-0.7
				c-0.2-0.3-0.4-0.6-0.4-0.9h-3.6c0,0.6,0.1,1.2,0.3,1.7c0.2,0.5,0.5,1,0.9,1.5c0.7,0.9,1.6,1.5,2.6,1.8c0.5,0.2,1,0.3,1.5,0.3
				c0.3,0,0.5,0,0.8,0c0.2,0,0.5,0,0.7,0c0.9-0.1,1.9-0.3,2.8-0.8c0.5-0.2,0.9-0.5,1.3-0.9c0.4-0.4,0.8-0.9,1.1-1.5
				c0.1-0.3,0.2-0.6,0.3-0.9C86.7,12.2,86.7,12,86.7,11.9z"/>
			<path id="path452431" class="st0" d="M103.2,3.4V0.3H90.3v3.1H95v12.9h3.5V3.4H103.2z"/>
			<path id="path452433" class="st0" d="M107.6,0.3v16h3.5v-16H107.6z"/>
			<path id="path452435" class="st0" d="M132.2,10.7h-3.9c-0.8,1.3-2.3,2.2-4,2.2c-2.6,0-4.7-2.1-4.7-4.7c0-2.6,2.1-4.7,4.7-4.7
				c1.6,0,2.9,0.8,3.8,1.9h4C131,2.3,127.9,0,124.3,0c-4.6,0-8.3,3.7-8.3,8.2c0,4.4,3.5,8.1,7.9,8.3h0.3
				C128,16.5,131.2,14.1,132.2,10.7z"/>
			<path id="path452437" class="st1" d="M161.8,16.2v-16L153.9,11l-4.4-6l-3.5-4.7v16h3.5v-6l4.4,6l4.4-6v6L161.8,16.2z"/>
			<path id="path452439" class="st1" d="M181.1,2.7l-0.6-0.6C179.1,0.8,177.1,0,175,0c-4.6,0-8.3,3.7-8.3,8.2c0,4.6,3.7,8.3,8.3,8.3
				c4.6,0,8.2-3.7,8.2-8.3C183.3,6.1,182.5,4.2,181.1,2.7z M170.3,8.2c0-2.6,2.1-4.7,4.7-4.7c2.6,0,4.7,2.1,4.7,4.7
				c0,2.6-2.1,4.7-4.7,4.7C172.4,13,170.3,10.8,170.3,8.2z"/>
			<path id="path452441" class="st1" d="M199.2,3.4V0.3h-12.9v3.1h4.7v12.9h3.5V3.4H199.2z"/>
			<path id="path452443" class="st1" d="M216.7,2.7l-0.6-0.6c-1.5-1.3-3.4-2.1-5.5-2.1c-4.6,0-8.3,3.7-8.3,8.2
				c0,4.6,3.7,8.3,8.3,8.3c4.6,0,8.2-3.7,8.2-8.3C218.8,6.1,218,4.2,216.7,2.7z M205.8,8.2c0-2.6,2.1-4.7,4.7-4.7
				c2.6,0,4.7,2.1,4.7,4.7c0,2.6-2.1,4.7-4.7,4.7C207.9,13,205.8,10.8,205.8,8.2z"/>
			<path id="path452445" class="st1" d="M233.8,16.2h4l-4.5-5.6c2.1-0.7,3.6-2.6,3.6-5c0-2.7-1.9-4.7-4.4-5.2
				c-0.4-0.1-0.8-0.1-1.2-0.1h-7.7v16h3.5v-5.3h2.3L233.8,16.2z M227.3,7.9V3.4h4.1c1.1,0,2,1.1,2,2.3c0,0.9-0.7,1.9-1.5,2.2
				c-0.2,0.1-0.3,0.1-0.5,0.1L227.3,7.9z"/>
			<path id="path452447" class="st1" d="M253.8,11.9v-0.5c0-0.5-0.1-1.1-0.4-1.7c-0.2-0.6-0.6-1.1-1.1-1.5c-0.4-0.4-0.9-0.6-1.3-0.9
				c-0.9-0.4-1.7-0.6-2.4-0.8c-0.7-0.2-1.4-0.4-2-0.6c-0.1,0-0.2-0.1-0.3-0.1c0,0-0.1,0-0.1,0l-0.2-0.1c0,0,0,0,0,0l-0.1-0.1
				c-0.1,0-0.2-0.1-0.2-0.2c-0.1-0.1-0.2-0.2-0.2-0.2c-0.1-0.1-0.1-0.2-0.1-0.3s0-0.4,0-0.5c0-0.2,0.1-0.2,0.2-0.3
				c0.1-0.1,0.2-0.2,0.3-0.3c0.3-0.2,0.8-0.3,1.4-0.3c0.1,0,0.3,0,0.4,0h0.2c0.1,0,0.1,0,0.2,0c0.2,0,0.5,0.1,0.7,0.2
				c0.4,0.2,0.8,0.4,1,0.7c0.2,0.3,0.4,0.6,0.4,0.9h3.6c0-1.2-0.4-2.3-1.1-3.2c-0.7-0.9-1.6-1.5-2.6-1.8c-0.5-0.2-1-0.3-1.5-0.3
				c-0.1,0-0.3,0-0.4,0h-0.4c-0.2,0-0.5,0-0.7,0c-0.5,0.1-1.1,0.2-1.6,0.3c-0.4,0.1-0.8,0.3-1.2,0.6c-0.5,0.3-0.9,0.7-1.3,1.3
				c-0.4,0.5-0.6,1.1-0.7,1.7c0,0.3,0,0.6,0,0.9c0,0.3,0.1,0.6,0.1,0.9c0.1,0.6,0.5,1.2,0.9,1.7c0.4,0.5,0.9,0.8,1.3,1
				c0.5,0.2,0.9,0.4,1.3,0.6c0.8,0.3,1.6,0.5,2.3,0.6s1.3,0.4,1.8,0.7c0.2,0.1,0.4,0.3,0.5,0.4c0.1,0.1,0.2,0.2,0.2,0.4
				c0,0.1,0.1,0.3,0.1,0.5c0,0.1,0,0.1,0,0.2c0,0,0,0.1,0,0.2c0,0.1-0.1,0.2-0.2,0.3c-0.1,0.1-0.3,0.2-0.5,0.3
				c-0.4,0.2-0.9,0.3-1.5,0.4c-0.1,0-0.3,0-0.4,0s-0.3,0-0.4,0c-0.2,0-0.5-0.1-0.7-0.2c-0.4-0.2-0.8-0.4-1.1-0.7
				c-0.2-0.3-0.4-0.6-0.4-0.9h-3.6c0,0.6,0.1,1.2,0.3,1.7c0.2,0.5,0.5,1,0.9,1.5c0.7,0.9,1.6,1.5,2.6,1.8c0.5,0.2,1,0.3,1.5,0.3
				c0.3,0,0.5,0,0.8,0c0.2,0,0.5,0,0.7,0c0.9-0.1,1.9-0.3,2.8-0.8c0.5-0.2,0.9-0.5,1.3-0.9c0.4-0.4,0.8-0.9,1.1-1.5
				c0.1-0.3,0.2-0.6,0.3-0.9C253.8,12.2,253.8,12,253.8,11.9L253.8,11.9z"/>
		</g>
	</g>
</g>
</svg>
