<?xml version="1.0" encoding="utf-8"?>
<!-- Generator: Adobe Illustrator 27.8.0, SVG Export Plug-In . SVG Version: 6.00 Build 0)  -->
<svg version="1.1" id="Layer_1" xmlns="http://www.w3.org/2000/svg" xmlns:xlink="http://www.w3.org/1999/xlink" x="0px" y="0px"
	 viewBox="0 0 600 600" style="enable-background:new 0 0 600 600;" xml:space="preserve">
<style type="text/css">
	.st0{fill:#2F4450;}
	.st1{fill:#5BAAEC;}
</style>
<path id="path452421" class="st0" d="M260.9,278.5V72.7L159,211.5l-57.3-77.5L56.8,72.7v205.7h45.7v-76.7l56.5,76.7l56.2-76.7v76.7
	L260.9,278.5z"/>
<path id="path452423" class="st0" d="M492.5,278.8H544l-86.9-156.5L429.9,73l-26,46.5l-88.3,159.2h54.8l60.9-109.9L492.5,278.8z"/>
<path id="path452437" class="st1" d="M214.5,317.7v76.7l-56.2-76.7l-56.5,76.7v-76.7H56.1v205.7l44.9-61.2l57.3-77.5l101.9,138.7
	V317.7H214.5z"/>
<path id="path452439" class="st1" d="M509.6,349l-7.5-7.5c-19.1-17.2-44-27.4-71.4-27.4c-59,0-106.6,47.6-106.6,106.3
	c0,59,47.6,106.6,106.6,106.6c58.7,0,106.3-47.6,106.3-106.6C537,393,526.7,368.1,509.6,349z M370,420.4c0-33.2,27.1-60.4,60.6-60.4
	c33.2,0,60.6,27.1,60.6,60.4c0,33.5-27.4,60.6-60.6,60.6C397.1,481,370,453.9,370,420.4z"/>
</svg>
